<?xml version="1.0" standalone="no"?>
<!DOCTYPE svg PUBLIC "-//W3C//DTD SVG 20010904//EN"
 "http://www.w3.org/TR/2001/REC-SVG-20010904/DTD/svg10.dtd">
<svg version="1.0" xmlns="http://www.w3.org/2000/svg"
 width="300.000000pt" height="300.000000pt" viewBox="0 0 300.000000 300.000000"
 preserveAspectRatio="xMidYMid meet">
<metadata>
Created by potrace 1.10, written by Peter Selinger 2001-2011
</metadata>
<g transform="translate(0.000000,300.000000) scale(0.100000,-0.100000)"
fill="#000000" stroke="none">
<path d="M1471 2913 c-12 -43 -29 -121 -38 -173 -18 -106 -20 -111 -33 -90
-12 19 -35 -34 -45 -103 -6 -37 -10 -45 -20 -37 -20 16 -25 0 -32 -95 l-6 -85
-23 15 c-13 8 -26 15 -29 15 -16 0 -1 -142 21 -194 7 -19 5 -19 -28 2 -24 15
-39 19 -43 12 -9 -15 4 -107 21 -147 14 -36 9 -40 -20 -18 -11 8 -24 15 -29
15 -16 0 1 -89 28 -148 14 -30 25 -56 25 -58 0 -3 -13 2 -30 11 -42 21 -43 20
-37 -31 3 -30 16 -63 37 -92 l32 -45 -31 6 c-28 6 -31 4 -31 -17 0 -13 13 -49
29 -80 l28 -57 -29 7 c-30 6 -30 6 -23 -27 4 -19 20 -58 36 -86 34 -63 35 -63
9 -63 -11 0 -20 -2 -20 -5 0 -3 14 -35 30 -72 34 -74 38 -99 11 -64 -12 16
-21 20 -25 12 -13 -20 -22 -12 -33 32 -7 23 -22 55 -34 71 -22 28 -22 28 -34
7 -10 -20 -12 -18 -29 28 -22 63 -43 82 -61 58 -16 -23 -25 -22 -25 3 0 47
-50 127 -71 115 -5 -4 -9 -15 -9 -26 0 -26 -17 -24 -24 4 -7 31 -63 117 -76
117 -5 0 -12 -11 -16 -25 -6 -25 -7 -24 -34 17 -15 24 -37 52 -49 63 -19 16
-24 17 -31 5 -6 -8 -10 -24 -10 -34 0 -13 -10 -5 -31 27 -32 49 -81 91 -93 80
-3 -3 -6 -15 -6 -25 0 -15 -11 -10 -57 27 -57 44 -83 55 -83 35 0 -6 -24 3
-53 20 -61 34 -67 36 -67 15 0 -9 -25 2 -78 34 -96 60 -181 103 -193 99 -11
-4 59 -111 127 -198 35 -44 40 -56 28 -60 -13 -5 -9 -16 21 -60 25 -38 32 -55
24 -61 -8 -5 7 -27 46 -68 48 -50 54 -61 37 -61 -11 0 -23 -4 -26 -9 -8 -12
59 -70 103 -89 l36 -15 -32 -10 c-18 -5 -33 -13 -33 -17 0 -8 61 -51 105 -73
l30 -15 -27 -11 c-16 -6 -28 -13 -28 -16 0 -9 123 -65 143 -65 26 0 20 -17 -9
-24 -14 -4 -24 -12 -22 -19 6 -19 69 -47 106 -47 36 0 39 -6 16 -32 -16 -17
-15 -19 20 -33 20 -9 50 -18 67 -22 30 -6 40 -23 13 -23 -9 0 -14 -6 -12 -12
6 -18 53 -39 99 -45 34 -5 38 -8 33 -28 -5 -20 0 -24 46 -36 28 -7 56 -19 62
-26 14 -17 -1 -17 -46 2 -34 15 -36 14 -36 -5 0 -20 0 -20 -32 0 -44 27 -71
27 -63 0 6 -19 5 -19 -29 -5 -53 22 -79 20 -71 -6 6 -18 5 -19 -13 -10 -24 13
-82 15 -82 3 0 -4 5 -13 10 -18 7 -7 -10 -9 -52 -6 -55 4 -61 3 -50 -10 11
-14 5 -17 -43 -23 -30 -3 -53 -10 -50 -15 2 -4 -16 -13 -41 -19 -24 -6 -42
-16 -39 -21 3 -5 -7 -12 -22 -16 -92 -20 -149 -36 -156 -43 -9 -9 113 -41 157
-41 16 0 26 -6 26 -15 0 -8 15 -17 37 -21 21 -4 44 -13 51 -21 7 -7 31 -13 52
-13 33 0 38 -3 33 -17 -6 -14 0 -15 50 -10 55 5 57 5 46 -15 -11 -20 -9 -21
29 -14 22 3 47 9 55 12 12 4 14 0 10 -15 -5 -19 -3 -19 33 -9 22 5 47 15 57
20 16 8 17 7 7 -11 -9 -18 -8 -21 11 -21 12 0 38 10 57 22 30 18 35 19 29 5
-8 -21 18 -22 53 -2 33 19 41 18 33 -1 -5 -13 -2 -15 18 -9 13 4 35 14 48 23
18 10 26 12 29 4 2 -7 11 -12 20 -13 10 0 3 -7 -15 -15 -19 -8 -30 -19 -28
-27 3 -7 -8 -17 -27 -25 -25 -9 -30 -15 -19 -21 11 -7 6 -13 -18 -26 -24 -12
-30 -19 -22 -29 8 -9 2 -17 -20 -30 -23 -14 -28 -21 -18 -27 11 -6 10 -13 -6
-31 -25 -29 -46 -65 -50 -88 -2 -10 -18 -38 -35 -61 -17 -24 -27 -45 -21 -47
5 -2 29 9 52 24 24 15 50 28 59 29 37 4 77 19 96 37 17 15 23 16 27 6 4 -9 13
-5 31 14 16 18 26 23 30 15 3 -8 13 -2 29 17 17 20 26 24 29 15 3 -9 12 -1 22
20 12 22 21 30 25 22 9 -13 23 0 34 32 4 10 11 16 16 12 6 -3 17 7 25 22 8 15
18 26 23 24 4 -2 13 5 18 15 10 19 24 37 57 74 9 10 19 29 23 42 4 12 11 25
15 28 4 3 14 28 22 55 14 49 14 49 14 -85 -1 -204 13 -380 32 -380 12 0 14 13
8 78 -13 154 -17 378 -8 417 l9 40 20 -65 c11 -36 25 -64 31 -62 7 1 12 -7 12
-17 0 -28 11 -52 21 -46 5 3 11 -6 15 -20 3 -14 11 -25 18 -25 6 0 17 -14 23
-31 7 -17 17 -28 22 -24 6 3 16 -5 22 -19 6 -13 17 -22 23 -20 6 2 17 -10 24
-28 9 -24 15 -29 21 -19 6 10 13 6 27 -18 19 -32 34 -40 34 -18 1 6 8 0 16
-15 15 -29 34 -37 34 -15 0 6 11 -1 25 -18 19 -23 26 -27 34 -16 6 10 10 10
16 1 8 -13 96 -53 102 -46 3 3 35 -12 71 -32 69 -38 70 -36 15 41 -19 26 -32
47 -28 47 4 0 0 11 -9 25 -9 13 -16 31 -16 38 0 8 -9 22 -20 32 -15 13 -17 21
-9 26 8 5 1 14 -20 27 -20 12 -28 22 -21 27 14 9 -6 35 -27 35 -10 0 -13 6 -9
16 4 11 -3 19 -24 27 -31 12 -40 26 -17 28 6 0 -6 9 -28 20 -22 10 -32 19 -23
19 9 0 18 5 20 12 3 8 11 6 29 -4 40 -26 69 -32 69 -13 0 14 3 14 30 0 38 -19
61 -20 54 0 -8 19 5 19 26 0 9 -8 31 -18 49 -21 32 -7 33 -6 22 15 -12 21 -3
29 14 12 6 -5 27 -14 49 -20 36 -9 38 -9 33 10 -4 15 -2 19 10 15 8 -3 33 -9
55 -12 38 -7 40 -6 29 14 -11 20 -9 20 46 15 50 -5 56 -4 50 10 -5 14 0 17 26
17 42 0 78 10 72 20 -3 4 13 10 35 14 26 4 40 12 40 21 0 9 10 15 26 15 39 0
164 31 164 40 0 5 -35 16 -77 25 -107 23 -114 25 -108 35 3 5 -15 15 -39 21
-25 6 -43 15 -41 19 3 5 -20 12 -50 15 -48 6 -54 9 -43 23 12 13 6 15 -51 9
-46 -4 -60 -2 -52 6 6 6 11 15 11 19 0 12 -58 10 -82 -3 -18 -9 -19 -8 -13 10
8 26 -18 28 -71 6 -34 -14 -35 -14 -29 5 8 27 -19 27 -62 0 -33 -20 -33 -20
-33 0 0 19 -2 20 -36 5 -43 -18 -44 -18 -44 -6 0 6 25 18 55 27 46 15 55 22
53 38 -3 17 5 22 41 28 46 8 91 32 91 48 0 6 -7 10 -15 10 -27 0 -16 17 14 23
17 4 47 13 67 22 35 14 36 16 20 34 -15 17 -16 19 -1 25 9 3 26 6 38 6 25 0
87 35 87 49 0 5 -12 14 -27 19 -20 7 -24 11 -13 15 83 30 108 41 130 57 l25
19 -30 11 -30 12 37 18 c47 23 98 59 98 70 0 5 -14 11 -31 15 l-31 7 43 25
c53 29 100 73 93 85 -3 4 -15 8 -26 8 -17 0 -10 11 38 62 51 53 56 62 39 68
-14 5 -15 9 -6 14 7 5 26 29 42 54 24 38 27 48 15 52 -11 4 -2 21 36 70 58 74
129 182 123 188 -7 7 -108 -43 -192 -96 -56 -34 -83 -46 -83 -37 0 8 -2 15 -5
15 -11 0 -70 -33 -89 -49 -14 -12 -20 -13 -23 -3 -8 20 -24 14 -85 -34 -48
-37 -58 -42 -58 -26 0 10 -3 22 -6 25 -12 11 -61 -31 -93 -80 -21 -32 -31 -40
-31 -27 0 10 -5 26 -10 34 -8 12 -14 10 -39 -14 -17 -16 -38 -45 -47 -65 l-17
-36 -9 28 c-6 15 -14 27 -19 27 -12 0 -68 -87 -75 -117 -7 -28 -24 -30 -24 -4
0 11 -4 22 -9 26 -21 12 -71 -68 -71 -115 0 -23 -15 -27 -24 -5 -11 29 -27 15
-55 -47 -26 -56 -29 -59 -36 -38 l-8 24 -23 -27 c-13 -15 -29 -46 -35 -70 -16
-53 -15 -52 -33 -38 -11 10 -16 8 -24 -6 -6 -10 -13 -15 -16 -12 -4 3 7 36 24
72 16 37 30 69 30 72 0 3 -9 5 -20 5 -26 0 -25 0 9 63 16 28 32 67 36 86 7 33
7 33 -23 27 l-29 -7 28 57 c16 31 29 67 29 80 0 21 -3 23 -31 17 l-31 -6 32
45 c21 29 34 62 37 92 6 51 5 52 -37 31 -17 -9 -30 -14 -30 -11 0 2 11 28 25
58 26 57 44 148 29 148 -5 0 -18 -7 -28 -15 -30 -23 -36 -18 -22 18 17 40 30
132 21 147 -4 7 -19 3 -43 -12 -33 -21 -35 -21 -28 -2 22 52 37 194 21 194 -3
0 -17 -7 -30 -16 l-25 -16 -1 53 c0 86 -12 134 -31 131 -12 -2 -18 9 -23 40
-4 24 -14 59 -22 78 -11 27 -16 31 -23 20 -13 -21 -15 -16 -33 90 -20 114 -56
250 -67 250 -4 0 -17 -35 -29 -77z"/>
</g>
</svg>
